<?xml version="1.0" encoding="utf-8"?>
<svg viewBox="0 0 500 500" xmlns="http://www.w3.org/2000/svg" xmlns:bx="https://boxy-svg.com">
  <ellipse style="stroke: rgb(255, 0, 0); paint-order: fill; stroke-linecap: round; fill: rgb(255, 0, 0);" cx="139.371" cy="104.042" rx="38.174" ry="39.072"/>
  <ellipse style="stroke: rgb(255, 0, 0); paint-order: fill; stroke-linecap: round; fill: rgb(255, 0, 0);" cx="348.204" cy="109.88" rx="38.174" ry="39.072"/>
  <path style="paint-order: stroke; fill: rgb(255, 0, 0); stroke: rgb(255, 0, 0);" d="M 62.874 248.204 C 62.874 248.204 71.215 310.352 89.521 331.438 C 109.469 354.415 148.83 366.819 182.934 376.647 C 219.957 387.316 267.611 391.948 304.491 390.12 C 335.747 388.571 369.838 385.384 390.419 371.857 C 407.354 360.726 416.664 343.108 424.85 323.354 C 434.981 298.907 445.862 236.377 440.12 233.534 C 436.786 231.883 425.071 245.67 419.161 255.989 C 410.421 271.248 411.246 302.028 400 320.36 C 388.881 338.485 371.732 356.259 352.395 365.57 C 331.857 375.459 305.925 376.281 279.042 375.749 C 245.991 375.095 199.532 366.795 168.862 355.989 C 144.619 347.448 121.072 337.471 107.485 322.456 C 95.915 309.67 93.77 288.333 87.724 275.749 C 83.463 266.881 80.7 258.206 75.748 253.593 C 72.082 250.178 63.173 247.905 63.173 247.905" bx:d="M 62.874 248.204 R 89.521 331.438 R 182.934 376.647 R 304.491 390.12 R 390.419 371.857 R 424.85 323.354 R 440.12 233.534 R 419.161 255.989 R 400 320.36 R 352.395 365.57 R 279.042 375.749 R 168.862 355.989 R 107.485 322.456 R 87.724 275.749 R 75.748 253.593 R 63.173 247.905 1@77a5ca3c"/>
</svg>